<?xml version="1.0" standalone="no"?>
<!DOCTYPE svg PUBLIC "-//W3C//DTD SVG 20010904//EN"
 "http://www.w3.org/TR/2001/REC-SVG-20010904/DTD/svg10.dtd">
<svg version="1.0" xmlns="http://www.w3.org/2000/svg"
 width="500.000000pt" height="500.000000pt" viewBox="0 0 500.000000 500.000000"
 preserveAspectRatio="xMidYMid meet">

<g transform="translate(0.000000,500.000000) scale(0.100000,-0.100000)"
fill="#000000" stroke="none">
<path d="M2350 4989 c-344 -21 -636 -98 -948 -251 -406 -198 -771 -526 -1017
-914 -73 -115 -182 -339 -233 -479 -110 -302 -162 -665 -141 -993 53 -861 528
-1613 1284 -2034 331 -185 678 -284 1072 -307 895 -53 1761 395 2248 1164 185
292 326 700 366 1055 16 147 13 441 -6 584 -72 540 -301 1020 -670 1404 -448
466 -1022 733 -1660 772 -88 5 -162 9 -165 8 -3 0 -61 -4 -130 -9z m-890
-2328 c0 -297 -4 -520 -10 -552 -15 -76 -60 -167 -106 -213 -162 -160 -528
-130 -675 55 l-31 39 57 65 c32 36 59 65 61 65 2 0 24 -22 50 -50 66 -71 135
-102 226 -103 113 0 173 37 208 130 19 51 20 78 20 468 l0 415 -240 0 -240 0
0 90 0 90 340 0 340 0 0 -499z m1258 -98 c149 -329 287 -633 306 -676 l36 -78
-107 3 -107 3 -70 162 -71 163 -356 0 -356 0 -72 -165 -73 -165 -105 0 c-57 0
-102 3 -100 8 3 4 133 291 290 638 157 347 294 647 303 668 l18 36 96 0 97 0
271 -597z m1492 507 l0 -90 -380 0 -380 0 0 -200 0 -200 335 0 335 0 0 -85 0
-85 -335 0 -335 0 0 -215 0 -215 390 0 390 0 0 -85 0 -85 -490 0 -490 0 0 675
0 675 480 0 480 0 0 -90z"/>
<path d="M2207 2627 c-75 -172 -137 -315 -137 -319 0 -5 126 -8 281 -8 221 0
280 3 276 13 -24 61 -270 614 -275 619 -4 4 -69 -133 -145 -305z"/>
</g>
</svg>
